<!-- icon666.com - MILLIONS vector ICONS FREE --><svg id="svg1144" viewBox="0 0 8.4666667 8.4666667" xmlns="http://www.w3.org/2000/svg" xmlns:svg="http://www.w3.org/2000/svg"><g id="layer2"><path id="path1193" d="m1.5880169.52916701c-.59000793 0-1.05884993.47710989-1.05884993 1.05884989v1.8515669 3.4390661c0 .588975.47710993 1.0588498 1.05884993 1.0588498h5.290633c.5817399 0 1.0588498-.4698748 1.0588498-1.0588498v-5.290633c0-.58174-.4688419-1.05884991-1.0588498-1.05884991zm3.439583 1.05833289c.4404101 0 .793233.357885.793233.793234s-.353856.794266-.793233.794266c-.4393758 0-.794267-.358917-.794267-.794266s.353858-.793234.794267-.793234zm-.2651123.793234c0 .149296.1225592.2651.2656171.2651.1430702 0 .2635623-.115804.2635623-.2651s-.121526-.264584-.2645902-.264584c-.1430639 0-.2645892.115288-.2645892.264584zm-1.8329506.794266c.27093 0 .5424269.1040761.7482749.308509l1.2149128 1.1963091.677477-.6681761c.4148111-.4119582 1.0843371-.4088649 1.4960331 0 .1141269.1135779.2281229.227312.342098.341064v.748792c-.2383491-.2375979-.4764921-.4754052-.7152021-.7126182-.2053339-.2053338-.5396958-.2087409-.7508579 0l-.8640299.8511112c-.1032021.1025588-.269902.1025588-.3731041 0l-1.4004307-1.381311c-.1013734-.101373-.2361871-.153764-.3720711-.154513-.1358831-.000749-.272661.05014-.377754.154513-.499426.496289-.9979941.99016-1.4965501 1.4846631v-.7456901c.37404-.371139.747543-.742193 1.1234461-1.114144.205848-.2044329.4768279-.308509.747758-.308509z" font-variant-ligatures="normal" font-variant-position="normal" font-variant-caps="normal" font-variant-numeric="normal" font-variant-alternates="normal" font-feature-settings="normal" text-indent="0" text-align="start" text-decoration-line="none" text-decoration-style="solid" text-decoration-color="rgb(0,0,0)" text-transform="none" text-orientation="mixed" white-space="normal" shape-padding="0" isolation="auto" mix-blend-mode="normal" solid-color="rgb(0,0,0)" solid-opacity="1" vector-effect="none"></path></g></svg>