<!-- icon666.com - MILLIONS vector ICONS FREE --><svg viewBox="-26 -18 593 593.33489" xmlns="http://www.w3.org/2000/svg"><path d="m271.34375 49.949219h19.980469v19.980469h-19.980469zm0 0"></path><path d="m178.539062 453.664062c-.613281-4.152343-1.527343-8.25-2.726562-12.269531-.179688-.636719-.238281-1.332031-.429688-2-.085937-.277343-.238281-.527343-.316406-.800781-10.472656-32.71875-38.792968-56.527344-72.824218-61.222656-.09375 0-.171876-.058594-.261719-.070313-38.300781-5.351562-75.734375 14.390625-92.949219 49.023438-17.21875 34.628906-10.355469 76.390625 17.035156 103.691406 27.386719 27.304687 69.171875 34.03125 103.746094 16.710937 34.578125-17.328124 54.199219-54.820312 48.726562-93.101562zm-19.199218 16.480469c-1.550782 27.5-19.101563 51.527344-44.828125 61.371094-25.726563 9.84375-54.839844 3.664063-74.347657-15.777344-22.777343-22.699219-27.136718-58.003906-10.570312-85.558593 16.5625-27.558594 49.785156-40.269532 80.515625-30.800782 30.730469 9.460938 51.042969 38.664063 49.230469 70.765625zm0 0"></path><path d="m305.449219 179.8125-59.9375 59.941406 70.679687 70.675782 34.792969-34.875c25.238281-24.996094 36.695313-60.726563 30.695313-95.742188zm0 0"></path><path d="m373.242188 556.183594c47.15625-.003906 86.289062-36.464844 89.617187-83.507813 3.332031-47.035156-30.265625-88.652343-76.949219-95.304687-4.332031-.617188-8.699218-.929688-13.066406-.929688-4.011719.035156-8.015625.332032-11.992188.898438-.097656 0-.191406.070312-.285156.078125-9.445312 1.316406-18.617187 4.125-27.175781 8.335937l-.648437.296875c-3.878907 1.972657-7.609376 4.226563-11.15625 6.742188-.703126.492187-1.378907 1-2.066407 1.542969-3.320312 2.441406-6.464843 5.113281-9.410156 7.988281-.140625.140625-.292969.257812-.433594.390625-.136719.132812-.421875.476562-.640625.707031-2.726562 2.808594-5.261718 5.789063-7.597656 8.929687-.660156.875-1.332031 1.742188-2 2.628907-2.292969 3.273437-4.367188 6.699219-6.195312 10.25-.421876.808593-.777344 1.648437-1.167969 2.46875-1.75 3.625-3.246094 7.359375-4.484375 11.1875-.070313.238281-.183594.480469-.261719.71875-2.53125 8.675781-3.871094 17.65625-3.992187 26.695312-.015626 23.847657 9.453124 46.722657 26.3125 63.585938 16.867187 16.863281 39.746093 26.332031 63.59375 26.320312zm-49.453126-139.332032c27.3125-27.308593 71.589844-27.308593 98.894532.003907 27.304687 27.304687 27.304687 71.582031 0 98.886719-27.304688 27.3125-71.582032 27.3125-98.894532.003906-13.257812-13.03125-20.722656-30.851563-20.730468-49.445313-.003906-18.59375 7.460937-36.40625 20.710937-49.449219zm0 0"></path><path d="m541.066406 115.203125v-70.570313l-53.5625-44.632812h-346.023437v135.71875l24.113281 24.117188h321.910156zm-309.679687-65.253906h-29.96875v19.980469h9.988281c11.035156 0 19.980469 8.945312 19.980469 19.976562v19.980469c0 11.035156-8.945313 19.980469-19.980469 19.980469h-29.96875v-19.980469h29.96875v-19.980469h-9.988281c-11.035157 0-19.980469-8.945312-19.980469-19.976562v-19.980469c0-11.035157 8.945312-19.980469 19.980469-19.980469h29.96875zm79.917969 29.96875v49.949219h-19.980469v-39.960938h-19.980469v39.960938h-19.976562v-89.910157c0-5.515625 4.472656-9.988281 9.988281-9.988281h39.957031c5.519531 0 9.992188 4.472656 9.992188 9.988281zm59.9375 49.949219h-29.96875c-5.515626 0-9.992188-4.472657-9.992188-9.992188v-89.90625h19.980469v79.917969h19.980469zm69.925781-79.917969h-29.96875v19.980469h29.96875v19.976562h-29.96875v19.980469h29.96875v19.980469h-39.957031c-5.515626 0-9.988282-4.472657-9.988282-9.992188v-79.917969c0-5.515625 4.472656-9.988281 9.988282-9.988281h39.957031zm29.972656 29.96875c0-16.550781 13.417969-29.96875 29.96875-29.96875 16.554687 0 29.96875 13.417969 29.96875 29.96875s-13.414063 29.96875-29.96875 29.96875c-16.550781 0-29.96875-13.417969-29.96875-29.96875zm0 0"></path><path d="m241.375 329.660156c0 5.515625-4.472656 9.988282-9.988281 9.988282s-9.988281-4.472657-9.988281-9.988282 4.472656-9.988281 9.988281-9.988281 9.988281 4.472656 9.988281 9.988281zm0 0"></path><path d="m183.4375 409.128906c2 3.300782 3.816406 6.714844 5.445312 10.21875.378907.820313.738282 1.648438 1.105469 2.46875 1.359375 3.105469 2.601563 6.261719 3.667969 9.488282.132812.378906.308594.730468.4375 1.109374l23.136719-23.132812-70.566407-70.632812-23.164062 23.171874c3.832031 1.238282 7.59375 2.695313 11.265625 4.359376l1.363281.609374c7.261719 3.394532 14.128906 7.574219 20.476563 12.476563.589843.453125 1.179687.914063 1.753906 1.382813 3.144531 2.496093 6.148437 5.164062 8.996094 7.988281 2.785156 2.828125 5.417969 5.800781 7.890625 8.902343.539062.667969 1.058594 1.339844 1.578125 2 2.28125 2.9375 4.414062 5.988282 6.375 9.152344zm0 0"></path><path d="m511.097656 79.917969c0 5.515625-4.472656 9.988281-9.988281 9.988281-5.519531 0-9.992187-4.472656-9.992187-9.988281s4.472656-9.988281 9.992187-9.988281c5.515625 0 9.988281 4.472656 9.988281 9.988281zm0 0"></path><path d="m280.667969 407.148438c1.21875-1.898438 2.523437-3.726563 3.867187-5.550782.996094-1.410156 1.996094-2.828125 3.105469-4.183594 1.871094-2.3125 3.882813-4.519531 5.992187-6.699218.648438-.679688 1.1875-1.425782 1.855469-2.085938 3.558594-3.511718 7.34375-6.78125 11.34375-9.78125 9.765625-7.503906 20.734375-13.292968 32.445313-17.113281l-234.25-234.203125c-36.386719 43.648438-33.457032 107.855469 6.753906 148.015625l126.667969 126.667969 30.1875 30.191406c.273437-.832031.660156-1.601562.941406-2.429688.917969-2.640624 1.910156-5.253906 2.996094-7.816406.640625-1.476562 1.351562-2.914062 2.058593-4.347656 1-2.078125 2.097657-4.117188 3.257813-6.128906.925781-1.515625 1.816406-3.046875 2.777344-4.535156zm-49.28125-47.519532c-16.550781 0-29.96875-13.417968-29.96875-29.96875 0-16.550781 13.417969-29.96875 29.96875-29.96875 16.554687 0 29.96875 13.417969 29.96875 29.96875 0 16.550782-13.414063 29.96875-29.96875 29.96875zm0 0"></path></svg>